<svg width="16" height="16" viewBox="0 0 16 16" fill="none" xmlns="http://www.w3.org/2000/svg">
    <g clip-path="url(#clip0_2_6)">
        <path
            d="M14 2V2.8C14 3.02089 13.8321 3.2 13.625 3.2H2.375C2.16792 3.2 2 3.02089 2 2.8V2C2 1.77911 2.16792 1.6 2.375 1.6H5.75V0.8C5.75 0.35816 6.08578 0 6.5 0H9.5C9.91422 0 10.25 0.35816 10.25 0.8V1.6H13.625C13.8321 1.6 14 1.77911 14 2V2ZM3.4025 14.512C3.45773 15.3516 4.11339 16.0021 4.9025 16H11.1125C11.9016 16.0021 12.5572 15.3516 12.6125 14.512L13.25 4.8H2.74997L3.4025 14.512Z"
            fill="#A0A0A0" />
    </g>
    <defs>
        <clipPath id="clip0_2_6">
            <rect width="16" height="16" fill="white" />
        </clipPath>
    </defs>
</svg>