<svg version="1.2" xmlns="http://www.w3.org/2000/svg" xmlns:xlink="http://www.w3.org/1999/xlink" overflow="visible" preserveAspectRatio="none" viewBox="0 0 12 12" width="12" height="12"><g transform="translate(0, 0)"><defs><path id="path-161601693481644" d="M9.343705799151346 20.144271570014144 C9.343705799151346 20.144271570014144 14.144271570014148 15.343705799151346 14.144271570014148 15.343705799151346 C14.144271570014148 15.343705799151346 18.944837340876948 20.144271570014144 18.944837340876948 20.144271570014144 C18.944837340876948 20.144271570014144 20.144271570014144 18.944837340876948 20.144271570014144 18.944837340876948 C20.144271570014144 18.944837340876948 15.343705799151346 14.144271570014148 15.343705799151346 14.144271570014148 C15.343705799151346 14.144271570014148 20.144271570014144 9.343705799151346 20.144271570014144 9.343705799151346 C20.144271570014144 9.343705799151346 18.944837340876948 8.144271570014146 18.944837340876948 8.144271570014146 C18.944837340876948 8.144271570014146 14.144271570014148 12.944837340876944 14.144271570014148 12.944837340876944 C14.144271570014148 12.944837340876944 9.343705799151346 8.144271570014146 9.343705799151346 8.144271570014146 C9.343705799151346 8.144271570014146 8.144271570014146 9.343705799151346 8.144271570014146 9.343705799151346 C8.144271570014146 9.343705799151346 12.944837340876944 14.144271570014148 12.944837340876944 14.144271570014148 C12.944837340876944 14.144271570014148 8.144271570014146 18.944837340876948 8.144271570014146 18.944837340876948 C8.144271570014146 18.944837340876948 9.343705799151346 20.144271570014144 9.343705799151346 20.144271570014144 Z" vector-effect="non-scaling-stroke"/></defs><g transform="translate(-8.144271570014146, -8.144271570014146)"><path d="M9.343705799151346 20.144271570014144 C9.343705799151346 20.144271570014144 14.144271570014148 15.343705799151346 14.144271570014148 15.343705799151346 C14.144271570014148 15.343705799151346 18.944837340876948 20.144271570014144 18.944837340876948 20.144271570014144 C18.944837340876948 20.144271570014144 20.144271570014144 18.944837340876948 20.144271570014144 18.944837340876948 C20.144271570014144 18.944837340876948 15.343705799151346 14.144271570014148 15.343705799151346 14.144271570014148 C15.343705799151346 14.144271570014148 20.144271570014144 9.343705799151346 20.144271570014144 9.343705799151346 C20.144271570014144 9.343705799151346 18.944837340876948 8.144271570014146 18.944837340876948 8.144271570014146 C18.944837340876948 8.144271570014146 14.144271570014148 12.944837340876944 14.144271570014148 12.944837340876944 C14.144271570014148 12.944837340876944 9.343705799151346 8.144271570014146 9.343705799151346 8.144271570014146 C9.343705799151346 8.144271570014146 8.144271570014146 9.343705799151346 8.144271570014146 9.343705799151346 C8.144271570014146 9.343705799151346 12.944837340876944 14.144271570014148 12.944837340876944 14.144271570014148 C12.944837340876944 14.144271570014148 8.144271570014146 18.944837340876948 8.144271570014146 18.944837340876948 C8.144271570014146 18.944837340876948 9.343705799151346 20.144271570014144 9.343705799151346 20.144271570014144 Z" style="stroke-width: 0; stroke-linecap: butt; stroke-linejoin: miter; fill: #e7e7e7;" vector-effect="non-scaling-stroke"/></g></g></svg>