<svg version="1.2" xmlns="http://www.w3.org/2000/svg" xmlns:xlink="http://www.w3.org/1999/xlink" overflow="visible"
    preserveAspectRatio="none" viewBox="0 0 16 8" width="16" height="8">
    <g transform="translate(0, 0)">
        <defs>
            <path id="path-16196542201702383"
                d="M8.568888888888887 0.21449780518582723 C8.248888888888887 -0.0715007202473131 7.733333333333332 -0.07150072024731312 7.431111111111109 0.21449691629682474 C7.431111111111109 0.21449691629682474 0.2666666666666666 6.617671956702422 0.2666666666666666 6.617671956702422 C-0.0888888888888889 6.935449775085138 -0.0888888888888889 7.443894284497484 0.2666666666666666 7.7616721028802 C0.6222222222222221 8.079441032372891 1.191111111111111 8.079441032372891 1.5466666666666664 7.7616721028802 C1.5466666666666664 7.7616721028802 7.431111111111109 2.502480319761334 7.431111111111109 2.502480319761334 C7.75111111111111 2.2164802832168893 8.266666666666666 2.2164802832168893 8.568888888888887 2.502480319761334 C8.568888888888887 2.502480319761334 14.453333333333331 7.745778767516052 14.453333333333331 7.745778767516052 C14.808888888888886 8.063556585898768 15.377777777777776 8.063556585898768 15.73333333333333 7.745778767516052 C16.08888888888889 7.428000949133335 16.08888888888889 6.919565328611014 15.73333333333333 6.601787510228299 C15.73333333333333 6.601787510228299 8.568888888888887 0.21449780518582723 8.568888888888887 0.21449780518582723 Z"
                vector-effect="non-scaling-stroke" />
        </defs>
        <g transform="translate(2.7755575615628914e-17, 0.000001350000145693142)">
            <path
                d="M8.568888888888887 0.21449780518582723 C8.248888888888887 -0.0715007202473131 7.733333333333332 -0.07150072024731312 7.431111111111109 0.21449691629682474 C7.431111111111109 0.21449691629682474 0.2666666666666666 6.617671956702422 0.2666666666666666 6.617671956702422 C-0.0888888888888889 6.935449775085138 -0.0888888888888889 7.443894284497484 0.2666666666666666 7.7616721028802 C0.6222222222222221 8.079441032372891 1.191111111111111 8.079441032372891 1.5466666666666664 7.7616721028802 C1.5466666666666664 7.7616721028802 7.431111111111109 2.502480319761334 7.431111111111109 2.502480319761334 C7.75111111111111 2.2164802832168893 8.266666666666666 2.2164802832168893 8.568888888888887 2.502480319761334 C8.568888888888887 2.502480319761334 14.453333333333331 7.745778767516052 14.453333333333331 7.745778767516052 C14.808888888888886 8.063556585898768 15.377777777777776 8.063556585898768 15.73333333333333 7.745778767516052 C16.08888888888889 7.428000949133335 16.08888888888889 6.919565328611014 15.73333333333333 6.601787510228299 C15.73333333333333 6.601787510228299 8.568888888888887 0.21449780518582723 8.568888888888887 0.21449780518582723 Z"
                style="stroke-width: 0; stroke-linecap: butt; stroke-linejoin: miter; fill: rgb(62, 202, 207);"
                vector-effect="non-scaling-stroke" />
        </g>
    </g>
</svg>
