<svg width="16" height="17" viewBox="0 0 16 17" fill="none" xmlns="http://www.w3.org/2000/svg">
    <path
        d="M13.9645 7.06393C12.895 7.06393 12.0148 7.89438 11.9351 8.94393H9.76235C9.71652 8.1951 9.33021 7.53592 8.75862 7.11969L10.6446 3.88346C10.9035 4.00294 11.1923 4.07068 11.4949 4.07068C12.6162 4.07068 13.5303 3.15855 13.5303 2.03534C13.5303 0.914128 12.6182 0 11.4949 0C10.3737 0 9.45961 0.912136 9.45961 2.03534C9.45961 2.74431 9.82407 3.36963 10.3737 3.73411L8.49966 6.95641C8.14913 6.76321 7.74688 6.65172 7.31868 6.65172C6.50813 6.65172 5.78718 7.04802 5.34309 7.65747L3.50706 5.97463C3.85558 5.61017 4.07068 5.11429 4.07068 4.57057C4.07068 3.44936 3.15855 2.53523 2.03534 2.53523C0.914128 2.53523 0 3.44737 0 4.57057C0 5.69179 0.912136 6.60591 2.03534 6.60591C2.50333 6.60591 2.93354 6.44857 3.2761 6.18173L5.17203 7.92034C4.97884 8.27086 4.86935 8.67312 4.86935 9.09931C4.86935 9.91381 5.26967 10.6388 5.88501 11.0829L4.77373 13.0087C4.51285 12.8872 4.22211 12.8195 3.91539 12.8195C2.79418 12.8195 1.88005 13.7316 1.88005 14.8549C1.88005 15.9761 2.79219 16.8902 3.91539 16.8902C5.03661 16.8902 5.95073 15.9781 5.95073 14.8549C5.95073 14.1499 5.59028 13.5265 5.04261 13.1601L6.14592 11.2482C6.49444 11.4394 6.89475 11.5469 7.31893 11.5469C8.61737 11.5469 9.68287 10.5313 9.76254 9.25269H11.9353C12.015 10.3022 12.8952 11.1327 13.9647 11.1327C15.0859 11.1327 16 10.2206 16 9.09735C15.9999 7.97809 15.0858 7.064 13.9645 7.064L13.9645 7.06393Z"
        fill="#A0A0A0" />
</svg>
