<svg width="16" height="16" viewBox="0 0 16 16" fill="none" xmlns="http://www.w3.org/2000/svg">
    <g clip-path="url(#clip0_170_16)">
        <path
            d="M1 7.68721C2.36662 7.68721 2.59432 6.94699 2.59432 6.26368C2.59432 5.75115 2.51842 5.12476 2.44252 4.59347C2.34764 4.06196 2.29072 3.18892 2.29072 2.6764C2.29072 0.930284 3.42964 0.190063 5.04267 0.190063H5.44136V1.23388H5.09982C3.97988 1.25285 3.60039 1.8223 3.60039 2.86612C3.60039 3.30276 3.65731 4.09993 3.73321 4.55532C3.79013 5.01093 3.86603 5.58015 3.86603 6.07374C3.885 7.30755 3.35349 7.91474 2.49941 8.14261V8.18056C3.3535 8.38927 3.88502 9.03465 3.86603 10.2494C3.86603 10.762 3.79013 11.3312 3.73321 11.7868C3.65731 12.2614 3.60039 13.0206 3.60039 13.476C3.60039 14.5578 4.03702 15.1083 5.09982 15.1462H5.44136V16.1901H5.04267C3.48633 16.1901 2.29072 15.4878 2.29072 13.5709C2.29072 13.0774 2.34764 12.2233 2.44252 11.711C2.51842 11.1795 2.59432 10.5721 2.59432 10.0598C2.59432 9.45234 2.36662 8.65521 1 8.65521V7.68721Z  fill="
            fill="#A0A0A0" />
        <path
            d="M6.69434 15.9627C7.11178 14.8238 7.62433 12.812 7.83326 11.4264L9.67426 11.2367C9.21865 12.85 8.38354 14.9568 7.85225 15.8488L6.69434 15.9627ZM7.51023 5.96006C7.51023 5.25776 7.98482 4.76422 8.64916 4.76422C9.31349 4.76422 9.74988 5.25756 9.74988 5.96006C9.74988 6.60539 9.31325 7.1369 8.62995 7.1369C7.96585 7.1369 7.49124 6.60539 7.51023 5.96006V5.96006Z"
            fill="#A0A0A0" />
        <path
            d="M16.241 8.65539C14.8934 8.65539 14.6657 9.45253 14.6657 10.0599C14.6657 10.5725 14.7416 11.1799 14.8175 11.7112C14.8934 12.2237 14.9693 13.0778 14.9693 13.5711C14.9693 15.488 13.7735 15.8866 12.2174 15.8866H11.8187V15.1464H12.1602C13.204 15.1085 13.6596 14.558 13.6596 13.4762C13.6596 13.0206 13.5837 12.2614 13.5268 11.787C13.4509 11.3314 13.375 10.7622 13.375 10.2496C13.356 9.03478 13.9065 8.38967 14.7606 8.18074V8.14279C13.9065 7.91509 13.3561 7.30768 13.375 6.07392C13.375 5.58037 13.4509 5.01112 13.5268 4.55551C13.584 4.0999 13.6596 3.30276 13.6596 2.8663C13.6596 1.82248 13.2612 1.25299 12.1602 1.23406H11.8187V0.190247H12.1984C13.8306 0.190247 14.9693 0.930467 14.9693 2.67658C14.9693 3.18912 14.8934 4.06219 14.8175 4.59365C14.7416 5.12511 14.6657 5.75156 14.6657 6.26386C14.6657 6.94717 14.8934 7.68739 16.2411 7.68739L16.241 8.65539Z"
            fill="#A0A0A0" />
    </g>
    <defs>
        <clipPath id="clip0_170_16">
            <rect width="16" height="16" fill="white" />
        </clipPath>
    </defs>
</svg>