<svg width="86" height="62" viewBox="0 0 86 62" fill="none" xmlns="http://www.w3.org/2000/svg">
<path fill-rule="evenodd" clip-rule="evenodd" d="M0 9.5C0 4.25329 4.25329 0 9.5 0H29.5C34.7467 0 39 4.2533 39 9.5V13.2983C39.7764 13.6094 40.4901 14.1386 41.1794 14.7657C42.5873 16.0464 44.0847 17.8542 45.2693 19.7111C46.246 21.2419 47.1992 22.9076 48.0596 24.6947L50.3696 23.7924L49.5 29.5L44.9919 25.8931L47.1254 25.0596C46.2935 23.3397 45.3725 21.7319 44.4263 20.2489C43.2824 18.4559 41.8403 16.7187 40.5065 15.5054C39.9822 15.0284 39.4882 14.6546 39 14.3988V17.5C39 22.7467 34.7467 27 29.5 27H9.5C4.25329 27 0 22.7467 0 17.5V9.5ZM9.5 3C5.91015 3 3 5.91015 3 9.5V17.5C3 21.0899 5.91015 24 9.5 24H29.5C33.0899 24 36 21.0899 36 17.5V9.5C36 5.91015 33.0899 3 29.5 3H9.5ZM56.8398 21.5L52.7898 30.5L56.8398 39.5H78.1602L82.2102 30.5L78.1602 21.5H56.8398ZM54.9 18.5L49.5 30.5L54.9 42.5H80.1L85.5 30.5L80.1 18.5H54.9ZM9.5 35C4.25329 35 0 39.2533 0 44.5V52.5C0 57.7467 4.25329 62 9.5 62H29.5C34.7467 62 39 57.7467 39 52.5V48.6967C39.7466 48.3526 40.4306 47.7961 41.0882 47.1459C42.48 45.7697 43.9548 43.8326 45.1164 41.8477C46.1158 40.1397 47.0878 38.2766 47.954 36.2751L50.2739 37.0986L49.226 31.421L44.833 35.1673L47.0094 35.9398C46.1683 37.8753 45.2253 39.6816 44.2533 41.3426C43.1288 43.2643 41.7056 45.1291 40.385 46.4348C39.9034 46.9111 39.4482 47.2911 39 47.5642V44.5C39 39.2533 34.7467 35 29.5 35H9.5ZM3 44.5C3 40.9101 5.91015 38 9.5 38H29.5C33.0899 38 36 40.9101 36 44.5V52.5C36 56.0899 33.0899 59 29.5 59H9.5C5.91015 59 3 56.0899 3 52.5V44.5Z" fill="#E3E3E3"/>
</svg>
