<svg width="14" height="16" viewBox="0 0 14 16" fill="none" xmlns="http://www.w3.org/2000/svg">
    <path fill-rule="evenodd" clip-rule="evenodd"
        d="M11.619 0H1.63268C0.734716 0 0 0.65309 0 1.4422V14.585C0 15.3741 0.734716 16 1.63268 16H11.619C12.5169 16 13.2517 15.3741 13.2517 14.585V1.4422C13.2517 0.65309 12.5169 0 11.619 0ZM4.48981 6.28563H10.6667V7.34685H4.48981V6.28563ZM2.55785 6.28563H3.61907V7.34685H2.55785V6.28563ZM4.48981 3.891H10.6667V4.97945H4.48981V3.891ZM2.55785 3.891H3.61907V4.97945H2.55785V3.891ZM4.48981 8.6528H10.6667V9.74126H4.48981V8.6528ZM2.55785 8.6528H3.61907V9.74126H2.55785V8.6528ZM4.48981 11.0474H10.6667V12.1359H4.48981V11.0474ZM2.55785 11.0474H3.61907V12.1359H2.55785V11.0474Z"
        fill="#A0A0A0" />
</svg>