<svg width="100" height="101" viewBox="0 0 100 101" fill="none" xmlns="http://www.w3.org/2000/svg">
<path fill-rule="evenodd" clip-rule="evenodd" d="M23 30.8047H4C1.79086 30.8047 0 32.5955 0 34.8047V96.8047C0 99.0138 1.79086 100.805 4 100.805H66C68.2091 100.805 70 99.0138 70 96.8047V77.8047H63V91.8047C63 92.9093 62.1043 93.8047 60.9997 93.8047H9.0003C7.89573 93.8047 7 92.9093 7 91.8047V39.8047C7 38.7001 7.89543 37.8047 9 37.8047H23V30.8047ZM30 37.8047H36V30.8047H30V37.8047ZM61 37.8047H43V30.8047H66C68.2091 30.8047 70 32.5955 70 34.8047V57.8047H63V39.8047C63 38.7001 62.1046 37.8047 61 37.8047ZM70 64.8047H63V70.8047H70V64.8047Z" fill="#E7E7E7"/>
<path fill-rule="evenodd" clip-rule="evenodd" d="M34 0.804688C31.7909 0.804688 30 2.59555 30 4.80469V66.8047C30 69.0138 31.7909 70.8047 34 70.8047H96C98.2091 70.8047 100 69.0138 100 66.8047V4.80469C100 2.59555 98.2091 0.804688 96 0.804688H34ZM39 7.80469C37.8954 7.80469 37 8.70012 37 9.80469V61.8047C37 62.9093 37.8957 63.8047 39.0003 63.8047H90.9997C92.1043 63.8047 93 62.9093 93 61.8047V9.80469C93 8.70012 92.1046 7.80469 91 7.80469H39Z" fill="#E7E7E7"/>
</svg>
