<svg width="100" height="100" viewBox="0 0 100 100" fill="none" xmlns="http://www.w3.org/2000/svg">
<path d="M82.7225 78.5593V77.2542C82.7225 68.6407 80.8901 61.8542 77.2251 56.8949C76.178 55.3288 76.9633 53.2407 78.534 52.9797C79.8429 52.7186 81.1518 52.4576 82.7225 52.4576C95.5497 52.4576 100 64.2034 100 72.2949C100 76.4712 91.3613 78.5593 82.7225 78.5593ZM50 42.278C41.623 42.278 34.8168 35.4915 34.8168 27.139C34.8168 18.7864 41.623 12 50 12C58.377 12 65.1832 18.7864 65.1832 27.139C65.1832 35.4915 58.377 42.278 50 42.278ZM82.4607 47.7593C76.178 47.7593 70.9424 42.539 70.9424 36.2746C70.9424 30.0102 76.178 24.7898 82.4607 24.7898C88.7435 24.7898 93.9791 30.0102 93.9791 36.2746C93.9791 42.539 88.7435 47.7593 82.4607 47.7593ZM17.2775 47.4983C10.9948 47.4983 6.02094 42.539 6.02094 36.2746C6.02094 30.0102 10.9948 25.0508 17.2775 25.0508C23.5602 25.0508 28.534 30.0102 28.534 36.2746C28.534 42.539 23.5602 47.4983 17.2775 47.4983ZM50 48.5424C66.4921 48.5424 78.0105 54.8068 78.0105 76.4712C78.0105 82.2136 71.7277 89 50 89C28.2723 89 21.9895 82.9966 21.9895 76.4712C21.9895 54.5458 33.2461 48.5424 50 48.5424ZM0 72.817C0 64.7254 4.18848 52.9797 17.2775 52.9797C18.8482 52.9797 20.1571 53.2407 21.466 53.5017C23.2984 54.0237 23.822 56.1119 22.7749 57.4169C19.1099 62.3763 17.2775 69.1627 17.2775 77.7763V79.0814C8.63874 79.0814 0 76.9932 0 72.817Z" fill="#e7e7e7"/>
</svg>
